<svg xmlns="http://www.w3.org/2000/svg" viewBox="0 0 100 100" width="100" height="100">
  <circle cx="50" cy="50" r="48" fill="#00693E"/>
  <circle cx="50" cy="50" r="48" fill="none" stroke="#7A1F2B" stroke-width="4"/>
  <path d="M26 30 C 40 24, 60 26, 72 38 C 78 44, 80 52, 74 56 L 82 58 L 72 62 C 70 70, 62 76, 52 76 C 54 70, 53 66, 49 64 C 40 70, 30 68, 26 60 C 33 60, 37 57, 38 52 C 30 52, 25 47, 26 40 C 33 44, 39 43, 42 39 C 36 37, 31 34, 26 30 Z" fill="#ffffff"/>
  <circle cx="52" cy="42" r="3.4" fill="#141414"/>
</svg>
